{
  "accessors": [
    {
      "bufferView": 2,
      "componentType": 5126,
      "count": 1552,
      "max": [
        7.699999809265137,
        3.9600000381469727,
        34.72200012207031
      ],
      "min": [
        -7.699999809265137,
        -3.9600000381469727,
        16.020000457763672
      ],
      "type": "VEC3"
    },
    {
      "bufferView": 2,
      "byteOffset": 18624,
      "componentType": 5126,
      "count": 1552,
      "max": [
        1.0,
        1.0,
        1.0
      ],
      "min": [
        -1.0,
        -1.0,
        -1.0
      ],
      "type": "VEC3"
    },
    {
      "bufferView": 1,
      "componentType": 5126,
      "count": 1552,
      "max": [
        0.9800000190734863,
        0.9269999861717224
      ],
      "min": [
        0.0,
        0.0
      ],
      "type": "VEC2"
    },
    {
      "bufferView": 0,
      "componentType": 5125,
      "count": 5424,
      "type": "SCALAR"
    },
    {
      "bufferView": 2,
      "byteOffset": 37248,
      "componentType": 5126,
      "count": 926,
      "max": [
        5.599999904632568,
        9.600000381469727,
        33.0
      ],
      "min": [
        -5.599999904632568,
        -4.0,
        18.219999313354492
      ],
      "type": "VEC3"
    },
    {
      "bufferView": 2,
      "byteOffset": 48360,
      "componentType": 5126,
      "count": 926,
      "max": [
        1.0,
        1.0,
        1.0
      ],
      "min": [
        -1.0,
        -1.0,
        -1.0
      ],
      "type": "VEC3"
    },
    {
      "bufferView": 0,
      "byteOffset": 21696,
      "componentType": 5125,
      "count": 3402,
      "type": "SCALAR"
    },
    {
      "bufferView": 2,
      "byteOffset": 59472,
      "componentType": 5126,
      "count": 1154,
      "max": [
        5.099999904632568,
        5.099999904632568,
        40.400001525878906
      ],
      "min": [
        -5.099999904632568,
        -5.099999904632568,
        28.81999969482422
      ],
      "type": "VEC3"
    },
    {
      "bufferView": 2,
      "byteOffset": 73320,
      "componentType": 5126,
      "count": 1154,
      "max": [
        0.9990761876106262,
        0.9990761876106262,
        1.0
      ],
      "min": [
        -0.9990761876106262,
        -0.9990761876106262,
        -1.0
      ],
      "type": "VEC3"
    },
    {
      "bufferView": 1,
      "byteOffset": 12416,
      "componentType": 5126,
      "count": 1154,
      "max": [
        0.9879999756813049,
        0.9819999933242798
      ],
      "min": [
        3.9999998989515007e-05,
        5.999999848427251e-05
      ],
      "type": "VEC2"
    },
    {
      "bufferView": 0,
      "byteOffset": 35304,
      "componentType": 5125,
      "count": 4122,
      "type": "SCALAR"
    },
    {
      "bufferView": 2,
      "byteOffset": 87168,
      "componentType": 5126,
      "count": 274,
      "max": [
        6.824999809265137,
        1.9500000476837158,
        42.090999603271484
      ],
      "min": [
        -6.824999809265137,
        -8.975000381469727,
        33.25
      ],
      "type": "VEC3"
    },
    {
      "bufferView": 2,
      "byteOffset": 90456,
      "componentType": 5126,
      "count": 274,
      "max": [
        1.0,
        0.997826337814331,
        0.8186500668525696
      ],
      "min": [
        -1.0,
        -0.8186444640159607,
        -0.9978263974189758
      ],
      "type": "VEC3"
    },
    {
      "bufferView": 0,
      "byteOffset": 51792,
      "componentType": 5125,
      "count": 996,
      "type": "SCALAR"
    },
    {
      "bufferView": 2,
      "byteOffset": 93744,
      "componentType": 5126,
      "count": 4724,
      "max": [
        11.567000389099121,
        6.771999835968018,
        41.77899932861328
      ],
      "min": [
        -11.567000389099121,
        -6.982999801635742,
        0.019999999552965164
      ],
      "type": "VEC3"
    },
    {
      "bufferView": 2,
      "byteOffset": 150432,
      "componentType": 5126,
      "count": 4724,
      "max": [
        1.0,
        1.0,
        1.0
      ],
      "min": [
        -1.0,
        -1.0,
        -1.0
      ],
      "type": "VEC3"
    },
    {
      "bufferView": 0,
      "byteOffset": 55776,
      "componentType": 5125,
      "count": 18660,
      "type": "SCALAR"
    },
    {
      "bufferView": 2,
      "byteOffset": 207120,
      "componentType": 5126,
      "count": 1038,
      "max": [
        12.720999717712402,
        1.5299999713897705,
        22.28700065612793
      ],
      "min": [
        -12.720999717712402,
        -8.553999900817871,
        12.741999626159668
      ],
      "type": "VEC3"
    },
    {
      "bufferView": 2,
      "byteOffset": 219576,
      "componentType": 5126,
      "count": 1038,
      "max": [
        0.9948285818099976,
        0.9990859031677246,
        0.9983335733413696
      ],
      "min": [
        -0.9948285818099976,
        -0.9919527769088745,
        -0.9823728203773499
      ],
      "type": "VEC3"
    },
    {
      "bufferView": 0,
      "byteOffset": 130416,
      "componentType": 5125,
      "count": 3780,
      "type": "SCALAR"
    }
  ],
  "asset": {
    "extras": {
      "author": "Dr. Heinz Doofenshmirtz (https://sketchfab.com/Dr._Heinz_Doofenshmirtz)",
      "license": "CC-BY-4.0 (http://creativecommons.org/licenses/by/4.0/)",
      "source": "https://sketchfab.com/3d-models/chase-mccain-astronaut-cutscene-torso-d72ee43005cb4b6d849ac6faebfb7348",
      "title": "Chase Mccain Astronaut (Cutscene Torso)"
    },
    "generator": "Sketchfab-16.12.0",
    "version": "2.0"
  },
  "bufferViews": [
    {
      "buffer": 0,
      "byteLength": 145536,
      "name": "floatBufferViews",
      "target": 34963
    },
    {
      "buffer": 0,
      "byteLength": 21648,
      "byteOffset": 145536,
      "byteStride": 8,
      "name": "floatBufferViews",
      "target": 34962
    },
    {
      "buffer": 0,
      "byteLength": 232032,
      "byteOffset": 167184,
      "byteStride": 12,
      "name": "floatBufferViews",
      "target": 34962
    }
  ],
  "buffers": [
    {
      "byteLength": 399216,
      "uri": "scene.bin"
    }
  ],
  "images": [
    {
      "uri": "textures/MB_1_custom_482219_baseColor.png"
    },
    {
      "uri": "textures/MB_24_official_4521_baseColor.png"
    }
  ],
  "materials": [
    {
      "doubleSided": true,
      "name": "MB_1",
      "pbrMetallicRoughness": {
        "baseColorFactor": [
          0.904661,
          0.904661,
          0.904661,
          1.0
        ],
        "metallicFactor": 0.0
      }
    },
    {
      "doubleSided": true,
      "name": "MB_1_custom_482219",
      "pbrMetallicRoughness": {
        "baseColorTexture": {
          "index": 0
        },
        "metallicFactor": 0.0
      }
    },
    {
      "doubleSided": true,
      "name": "MB_2",
      "pbrMetallicRoughness": {
        "baseColorFactor": [
          0.3564,
          0.376262,
          0.361307,
          1.0
        ],
        "metallicFactor": 0.0
      }
    },
    {
      "doubleSided": true,
      "name": "MB_21",
      "pbrMetallicRoughness": {
        "baseColorFactor": [
          0.672443,
          0.0,
          0.012983,
          1.0
        ],
        "metallicFactor": 0.0
      }
    },
    {
      "doubleSided": true,
      "name": "MB_24_official_4521",
      "pbrMetallicRoughness": {
        "baseColorTexture": {
          "index": 1
        },
        "metallicFactor": 0.0
      }
    },
    {
      "doubleSided": true,
      "name": "MB_310",
      "pbrMetallicRoughness": {
        "baseColorFactor": [
          0.73791,
          0.533276,
          0.181164,
          1.0
        ],
        "metallicFactor": 0.0
      }
    }
  ],
  "meshes": [
    {
      "name": "Object_0",
      "primitives": [
        {
          "attributes": {
            "NORMAL": 1,
            "POSITION": 0,
            "TEXCOORD_0": 2
          },
          "indices": 3,
          "material": 1,
          "mode": 4
        }
      ]
    },
    {
      "name": "Object_1",
      "primitives": [
        {
          "attributes": {
            "NORMAL": 5,
            "POSITION": 4
          },
          "indices": 6,
          "material": 3,
          "mode": 4
        }
      ]
    },
    {
      "name": "Object_2",
      "primitives": [
        {
          "attributes": {
            "NORMAL": 8,
            "POSITION": 7,
            "TEXCOORD_0": 9
          },
          "indices": 10,
          "material": 4,
          "mode": 4
        }
      ]
    },
    {
      "name": "Object_3",
      "primitives": [
        {
          "attributes": {
            "NORMAL": 12,
            "POSITION": 11
          },
          "indices": 13,
          "material": 5,
          "mode": 4
        }
      ]
    },
    {
      "name": "Object_4",
      "primitives": [
        {
          "attributes": {
            "NORMAL": 15,
            "POSITION": 14
          },
          "indices": 16,
          "material": 0,
          "mode": 4
        }
      ]
    },
    {
      "name": "Object_5",
      "primitives": [
        {
          "attributes": {
            "NORMAL": 18,
            "POSITION": 17
          },
          "indices": 19,
          "material": 2,
          "mode": 4
        }
      ]
    }
  ],
  "nodes": [
    {
      "children": [
        1
      ],
      "matrix": [
        1.0,
        0.0,
        0.0,
        0.0,
        0.0,
        2.220446049250313e-16,
        -1.0,
        0.0,
        0.0,
        1.0,
        2.220446049250313e-16,
        0.0,
        0.0,
        0.0,
        0.0,
        1.0
      ],
      "name": "Sketchfab_model"
    },
    {
      "children": [
        2,
        3,
        4,
        5,
        6,
        7
      ],
      "name": "Chase Mccain Astronaut (Cutscene Torso).obj.cleaner.materialmerger.gles"
    },
    {
      "mesh": 0,
      "name": "Object_2"
    },
    {
      "mesh": 1,
      "name": "Object_3"
    },
    {
      "mesh": 2,
      "name": "Object_4"
    },
    {
      "mesh": 3,
      "name": "Object_5"
    },
    {
      "mesh": 4,
      "name": "Object_6"
    },
    {
      "mesh": 5,
      "name": "Object_7"
    }
  ],
  "samplers": [
    {
      "magFilter": 9729,
      "minFilter": 9987,
      "wrapS": 10497,
      "wrapT": 10497
    }
  ],
  "scene": 0,
  "scenes": [
    {
      "name": "Sketchfab_Scene",
      "nodes": [
        0
      ]
    }
  ],
  "textures": [
    {
      "sampler": 0,
      "source": 0
    },
    {
      "sampler": 0,
      "source": 1
    }
  ]
}
