{
  "accessors": [
    {
      "bufferView": 2,
      "componentType": 5126,
      "count": 22466,
      "max": [
        0.24244526028633118,
        0.29369688034057617,
        0.3932643234729767
      ],
      "min": [
        -0.23913414776325226,
        -0.29357779026031494,
        -0.3876245319843292
      ],
      "type": "VEC3"
    },
    {
      "bufferView": 2,
      "byteOffset": 269592,
      "componentType": 5126,
      "count": 22466,
      "max": [
        0.9998323917388916,
        0.9997755289077759,
        0.9999972581863403
      ],
      "min": [
        -0.999985933303833,
        -0.9998970031738281,
        -0.9999514222145081
      ],
      "type": "VEC3"
    },
    {
      "bufferView": 1,
      "componentType": 5126,
      "count": 22466,
      "max": [
        0.9969906210899353,
        0.9989190697669983
      ],
      "min": [
        0.00108097936026752,
        0.0010809545638039708
      ],
      "type": "VEC2"
    },
    {
      "bufferView": 0,
      "componentType": 5125,
      "count": 102660,
      "type": "SCALAR"
    }
  ],
  "asset": {
    "extras": {
      "author": "Giimann (https://sketchfab.com/giimann)",
      "license": "CC-BY-4.0 (http://creativecommons.org/licenses/by/4.0/)",
      "source": "https://sketchfab.com/3d-models/teddy-bear-b4dff11b7dfd44769793a2f272c65bf6",
      "title": "Teddy Bear"
    },
    "generator": "Sketchfab-16.16.0",
    "version": "2.0"
  },
  "bufferViews": [
    {
      "buffer": 0,
      "byteLength": 410640,
      "name": "floatBufferViews",
      "target": 34963
    },
    {
      "buffer": 0,
      "byteLength": 179728,
      "byteOffset": 410640,
      "byteStride": 8,
      "name": "floatBufferViews",
      "target": 34962
    },
    {
      "buffer": 0,
      "byteLength": 539184,
      "byteOffset": 590368,
      "byteStride": 12,
      "name": "floatBufferViews",
      "target": 34962
    }
  ],
  "buffers": [
    {
      "byteLength": 1129552,
      "uri": "scene.bin"
    }
  ],
  "images": [
    {
      "uri": "textures/tripo_mat_3453e122-f92b-4cfc-9c5d-80ad97036707_baseColor.png"
    }
  ],
  "materials": [
    {
      "doubleSided": true,
      "name": "tripo_mat_3453e122-f92b-4cfc-9c5d-80ad97036707",
      "pbrMetallicRoughness": {
        "baseColorTexture": {
          "index": 0
        },
        "metallicFactor": 0.0,
        "roughnessFactor": 0.9917466299973997
      }
    }
  ],
  "meshes": [
    {
      "name": "tripo_node_3453e122-f92b-4cfc-9c5d-80ad97036707_tripo_mat_3453e122-f92b-4cfc-9c5d-80ad97036707_0",
      "primitives": [
        {
          "attributes": {
            "NORMAL": 1,
            "POSITION": 0,
            "TEXCOORD_0": 2
          },
          "indices": 3,
          "material": 0,
          "mode": 4
        }
      ]
    }
  ],
  "nodes": [
    {
      "children": [
        1
      ],
      "matrix": [
        1.0,
        0.0,
        0.0,
        0.0,
        0.0,
        2.220446049250313e-16,
        -1.0,
        0.0,
        0.0,
        1.0,
        2.220446049250313e-16,
        0.0,
        0.0,
        0.0,
        0.0,
        1.0
      ],
      "name": "Sketchfab_model"
    },
    {
      "children": [
        2
      ],
      "matrix": [
        0.009999999776482582,
        0.0,
        0.0,
        0.0,
        0.0,
        0.0,
        0.009999999776482582,
        0.0,
        0.0,
        -0.009999999776482582,
        0.0,
        0.0,
        0.0,
        0.0,
        0.0,
        1.0
      ],
      "name": "6a0bc3402b1b4eb8a0297052e369b62f.fbx"
    },
    {
      "children": [
        3
      ],
      "name": "RootNode"
    },
    {
      "children": [
        4
      ],
      "matrix": [
        100.0,
        0.0,
        0.0,
        0.0,
        0.0,
        -4.371139006309477e-06,
        -99.9999999999999,
        0.0,
        0.0,
        99.9999999999999,
        -4.371139006309477e-06,
        0.0,
        0.0,
        0.0,
        0.0,
        1.0
      ],
      "name": "tripo_node_3453e122-f92b-4cfc-9c5d-80ad97036707"
    },
    {
      "mesh": 0,
      "name": "tripo_node_3453e122-f92b-4cfc-9c5d-80ad97036707_tripo_mat_3453e122-f92b-4cfc-9c5d-80ad97036707_0"
    }
  ],
  "samplers": [
    {
      "magFilter": 9729,
      "minFilter": 9987,
      "wrapS": 10497,
      "wrapT": 10497
    }
  ],
  "scene": 0,
  "scenes": [
    {
      "name": "Sketchfab_Scene",
      "nodes": [
        0
      ]
    }
  ],
  "textures": [
    {
      "sampler": 0,
      "source": 0
    }
  ]
}
